<svg xmlns="http://www.w3.org/2000/svg" width="48" height="48" fill="none" viewBox="0 0 48 48">
  <path fill="#B6C2CD" fill-rule="evenodd" d="M8 6a2 2 0 00-2 2v32a2 2 0 002 2h32a2 2 0 002-2V8a2 2 0 00-2-2H8zm10.5 6.5h-3V16H12v3h3.5v3.5h3V19H22v-3h-3.5v-3.5zm-6.5 17h10v3H12v-3zM36 27v3H26v-3h10zm-10 8v-3h10v3H26zm9.596-15.025L33.121 17.5l2.475-2.475-2.121-2.121L31 15.379l-2.475-2.475-2.121 2.121 2.475 2.475-2.475 2.475 2.121 2.121L31 19.621l2.475 2.475 2.121-2.121z" clip-rule="evenodd"/>
  <path fill="#324558" d="M18.5 12.5h-3V16H12v3h3.5v3.5h3V19H22v-3h-3.5v-3.5zm-6.5 17h10v3H12v-3zm24 .5v-3H26v3h10zm-10 5v-3h10v3H26zm7.121-17.5l2.475 2.475-2.121 2.121L31 19.621l-2.475 2.475-2.121-2.121 2.475-2.475-2.475-2.475 2.121-2.121L31 15.379l2.475-2.475 2.121 2.121-2.475 2.475z"/>
</svg>
