<svg xmlns="http://www.w3.org/2000/svg" width="48" height="48" fill="none" viewBox="0 0 48 48">
  <path fill="#324558" fill-rule="evenodd" d="M7.736 40.263c-4.295-4.295-4.295-11.26 0-15.556l6.01-6.01L5.97 10.92l2.827-2.83L39.91 39.204l-2.829 2.829-7.779-7.78-6.01 6.01c-4.295 4.296-11.26 4.296-15.556 0zm2.829-12.727l6.01-6.01 3.535 3.535-4.595 4.596 2.828 2.829 4.596-4.596 3.535 3.535-6.01 6.01a7 7 0 01-9.9-9.9z" clip-rule="evenodd"/>
  <path fill="#324558" d="M34.252 29.304l6.011-6.011c4.296-4.296 4.296-11.26 0-15.557-4.295-4.295-11.26-4.295-15.556 0l-6.011 6.012 2.828 2.828 6.011-6.011a7 7 0 019.9 9.9l-6.011 6.01 2.828 2.829z"/>
  <path fill="#324558" d="M27.889 22.94l4.596-4.597-2.828-2.828-4.597 4.597 2.829 2.828z"/>
</svg>
