<svg xmlns="http://www.w3.org/2000/svg" width="48" height="48" fill="none" viewBox="0 0 48 48">
  <path fill="#B6C2CD" fill-rule="evenodd" d="M24 7.619l-14.187 8.19v16.382L24 40.38l14.187-8.19V15.809L24 7.62zm1-4.042a2 2 0 00-2 0L6.813 12.923a2 2 0 00-1 1.732v18.69a2 2 0 001 1.732L23 44.423a2 2 0 002 0l16.187-9.346a2 2 0 001-1.732v-18.69a2 2 0 00-1-1.732L25 3.577z" clip-rule="evenodd"/>
  <path fill="#324558" d="M35.258 17.5L24 11l-11.258 6.5v2.928L24.99 27.5v8.928L35.258 30.5v-13z"/>
  <path fill="#324558" d="M21.99 35.84v-6.608l-9.248-5.34V30.5l9.248 5.34z"/>
</svg>
