<svg xmlns="http://www.w3.org/2000/svg" width="48" height="48" fill="none" viewBox="0 0 48 48">
  <path fill="#324558" d="M5.47 24c0-3.497 1.011-6.644 2.625-8.837A2.913 2.913 0 007.181 15C3.768 15 1 19.03 1 24s2.768 9 6.182 9c.29 0 .595-.057.912-.163C6.482 30.644 5.47 27.497 5.47 24zm35.348 9c-.29 0-.597-.058-.917-.164 1.613-2.193 2.624-5.34 2.624-8.836 0-3.496-1.01-6.643-2.624-8.836a2.92 2.92 0 01.917-.164C44.233 15 47 19.03 47 24s-2.767 9-6.182 9z"/>
  <path fill="#B6C2CD" d="M29.866 26.564C32.593 30.144 37.558 36 40.886 36c1.914 0 3.673-.98 5.06-2.619C43.981 37.391 40.787 40 37.182 40c-3.27 0-7.728-4.24-11.3-8.383l.076.09.382-.475a101.954 101.954 0 003.526-4.668z"/>
  <path fill="#B6C2CD" d="M10.818 40c3.876 0 9.42-5.957 13.182-10.646A97.764 97.764 0 0028 24c.955-1.385 8.406-12 12.886-12 1.914 0 3.673.98 5.06 2.619C43.981 10.609 40.787 8 37.182 8 33.306 8 27.763 13.957 24 18.646A96.375 96.375 0 0020 24c-.955 1.385-8.405 12-12.886 12-1.914 0-3.673-.98-5.06-2.619C4.02 37.391 7.213 40 10.818 40z"/>
  <path fill="#B6C2CD" d="M18.134 21.435c.743-1.046 1.99-2.753 3.526-4.667l.381-.475C18.482 12.18 14.066 8 10.818 8c-3.605 0-6.798 2.608-8.764 6.619C3.44 12.979 5.2 12 7.114 12c3.328 0 8.294 5.855 11.02 9.435z"/>
</svg>
