<svg xmlns="http://www.w3.org/2000/svg" width="48" height="48" fill="none" viewBox="0 0 48 48">
  <path fill="#324558" d="M26 10a4 4 0 118 0 4 4 0 01-8 0zM14 24a4 4 0 118 0 4 4 0 01-8 0zm16 10a4 4 0 100 8 4 4 0 000-8z"/>
  <path fill="#B6C2CD" d="M26.535 8H6v4h20.535A3.982 3.982 0 0126 10c0-.729.195-1.412.535-2zm6.93 4c.34-.588.535-1.271.535-2 0-.729-.195-1.412-.535-2H42v4h-8.535zm-18.93 10H6v4h8.535A3.982 3.982 0 0114 24c0-.729.195-1.412.535-2zm6.93 4c.34-.588.535-1.271.535-2 0-.729-.195-1.412-.535-2H42v4H21.465zm5.07 10H6v4h20.535A3.982 3.982 0 0126 38c0-.729.195-1.412.535-2zm6.93 4c.34-.588.535-1.271.535-2 0-.729-.195-1.412-.535-2H42v4h-8.535z"/>
</svg>
