<svg xmlns="http://www.w3.org/2000/svg" width="48" height="48" fill="none" viewBox="0 0 48 48">
  <path fill="#324558" d="M37.172 18H9a2 2 0 01-2-2v-6a2 2 0 012-2h28.172a2 2 0 011.414.586l3.707 3.707a1 1 0 010 1.414l-3.707 3.707a2 2 0 01-1.414.586zM10.828 34H39a2 2 0 002-2v-6a2 2 0 00-2-2H10.828a2 2 0 00-1.414.586l-3.707 3.707a1 1 0 000 1.414l3.707 3.707a2 2 0 001.414.586z"/>
  <path fill="#B6C2CD" d="M22.951 4a1 1 0 00-.998.95L21.8 8h4.4l-.152-3.05a1 1 0 00-1-.95h-2.097zM26.7 18h-5.4l-.3 6h6l-.3-6zm.8 16h-7l-.448 8.95a1 1 0 001 1.05h5.897a1 1 0 00.998-1.05L27.5 34z"/>
</svg>
