<svg xmlns="http://www.w3.org/2000/svg" width="48" height="48" fill="none" viewBox="0 0 48 48">
  <path fill="#324558" d="M27.661 42H36c5.523 0 10-4.477 10-10a9.99 9.99 0 00-4.406-8.29c-1.147 5.152-4.632 9.423-9.284 11.642A14.024 14.024 0 0127.661 42z"/>
  <path fill="#B6C2CD" d="M39 20c0 4.761-2.377 8.967-6.009 11.497.006-.165.009-.33.009-.497 0-7.732-6.268-14-14-14h-6c-.575 0-1.143.035-1.7.102C12.635 10.761 18.262 6 25 6c7.732 0 14 6.268 14 14z"/>
  <path fill="#B6C2CD" d="M13 20C6.925 20 2 24.925 2 31s4.925 11 11 11h6c6.075 0 11-4.925 11-11s-4.925-11-11-11h-6z"/>
</svg>
