<svg xmlns="http://www.w3.org/2000/svg" width="16" height="16" fill="none" viewBox="0 0 16 16">
  <path fill="#B6C2CD" fill-rule="evenodd" d="M2 4.333A.667.667 0 001.333 5v8.666c0 .368.299.667.667.667h12a.667.667 0 00.667-.667V5A.667.667 0 0014 4.333H2zm6 8a3 3 0 100-6 3 3 0 000 6z" clip-rule="evenodd"/>
  <path fill="#324558" d="M7.637 3.028a2.351 2.351 0 01.725 0l1.833-1.833.943.943-1.517 1.517c.2.194.367.424.488.679H5.89a2.34 2.34 0 01.488-.679L4.862 2.138l.943-.943 1.832 1.833zm-.97 8.306l3.333-2-3.333-2v4z"/>
</svg>
