<svg xmlns="http://www.w3.org/2000/svg" viewBox="0 0 364.02 86.12"><defs><style>.cls-1{fill:#ffffff;}.cls-2{fill:#ffffff;}</style></defs><title>资源 1</title><g id="图层_2" data-name="图层 2"><g id="图层_1-2" data-name="图层 1"><path class="cls-1" d="M122.17,8.9H118v7.59H102.54V37.72H118V49.24h4.18V37.72h15.61V16.49H122.17ZM118,20.2V34H106.57V20.2Zm15.75,0V34H122.17V20.2Z"/><path class="cls-1" d="M162.66,32.17c-1.74-1.53-6.46-5.37-6.46-5.37v-2h5.57V21.2H156.2V15.39a48.39,48.39,0,0,0,5.67-1.17l-.77-3.69s-3.5.89-7.09,1.38c-4.61.62-7.36.89-7.36.89l.41,3.63s3.06-.33,5.43-.75V21.2h-6.34v3.6H152A51.24,51.24,0,0,1,145.42,38s2.71,2.94,2.74,2.89a41.56,41.56,0,0,0,4.33-7.78V49.23h3.71V31.53c1.38,1.26,2.65,2.43,3.83,3.54l.28.28,2.63-2.94Z"/><path class="cls-1" d="M296.73,32.35C295,30.82,290.27,27,290.27,27V25h5.57V21.38h-5.57V15.57a49.06,49.06,0,0,0,5.67-1.17l-.77-3.69s-3.5.89-7.09,1.38c-4.61.62-7.37.89-7.37.89l.41,3.63s3.07-.32,5.43-.75v5.52h-6.33V25H286a51.06,51.06,0,0,1-6.52,13.19s2.7,2.93,2.73,2.89a41.41,41.41,0,0,0,4.33-7.79V49.41h3.72V31.71l3.83,3.55.27.27L297,32.6Z"/><path class="cls-1" d="M175.75,29.31a6.42,6.42,0,0,0,.94-1.88L173,26.82c.7-.39,1.38-.8,2-1.21a26.1,26.1,0,0,0,9.45-9.91l0-.09V12.26h-13c.41-.66.8-1.34,1.15-2l.19-.37-3.56-1.35-.14.3a32.55,32.55,0,0,1-8.64,10.67,29.56,29.56,0,0,0,3.07,2.27,38.14,38.14,0,0,0,5.49-5.9H180a25.33,25.33,0,0,1-6,6c-1.44-1.28-2.68-2.3-4.54-3.76l-.26-.2-2.35,2.55.3.24c1.66,1.36,2.61,2.2,3.7,3.24a49.1,49.1,0,0,1-9.57,3.83s2.35,3.18,2.42,3.16c2.11-.75,6.43-2.66,8.29-3.51-2.46,4.88-7.87,8.78-11.63,10.83A33.52,33.52,0,0,0,163.27,41a30.69,30.69,0,0,0,10.1-8.08h8.27c-.53,2.85-3,6.39-6.5,8.52-1.39-1.37-2.73-2.72-4.38-4.2l-2.64,2.3c1.45,1.34,2.73,2.71,3.81,3.85-5.28,2.28-12.32,2.6-12.32,2.6l1.46,3.22s20.68-.53,24.86-16.42l0-3.45Z"/><path class="cls-1" d="M294.14,40.53v-3.6h15.05V10.71h4.28V36.93h5.86v3.6h-5.86v9.18h-4.28V40.53Z"/><path class="cls-1" d="M322.9,21.51V18.07H328V10.69h3.72v7.38h4.39v3.44h-4.39v7.71c1.69-.33,3.27-.71,4.73-1.15v3.77a12.17,12.17,0,0,1-1.35.33l-3.38.82V44.63q.17,4.59-4.23,4.59h-3.72a27.84,27.84,0,0,0-.84-3.61h3c1.46.11,2.14-.54,2-2V33.81l-5.24,1.47-.34-4.1a13.3,13.3,0,0,1,1.86-.32c1.58-.33,2.82-.6,3.72-.82V21.51Zm15-1.48V16.59h10V10.52h3.88v6.07h11V20h-11V26.1h9v3.44a33.76,33.76,0,0,1-7.94,11.81,28.59,28.59,0,0,0,10.65,4.43c-.23.43-.57,1.09-1,2s-.95,1.47-1.18,1.8a66.5,66.5,0,0,1-11.49-5.74,68,68,0,0,1-13,6.07c-.23-.44-.68-1.21-1.35-2.3a8.31,8.31,0,0,1-.85-1.15q8.28-2.46,12.17-5.24c-2.81-2.63-5.41-6.75-7.44-11.89l.51.08h-1.52V26.1h9.64V20Zm18.77,9.35H343.35a30.7,30.7,0,0,0,6.43,9.68A27.72,27.72,0,0,0,356.71,29.38Z"/><rect class="cls-1" x="300.77" y="15" width="4.11" height="8.77" transform="translate(92.5 238.12) rotate(-49.79)"/><rect class="cls-1" x="299.4" y="24.69" width="4.11" height="8.77" transform="translate(84.61 240.5) rotate(-49.78)"/><path class="cls-1" d="M212.88,35.46h14.54V31.91H212.88V26.67h10.48V23.46q2.53,1.18,5.92,2.53a30.29,30.29,0,0,1,2-3.71,39,39,0,0,1-17.92-11l-1-1H209.7c-4.12,4.68-11.15,9.36-19.47,12.71.79,1.24,1.52,2.43,2.2,3.55q3-1.35,5.41-2.53v2.7h11v5.24h-14.7v3.55h14.7v10H191.58v3.39H230V45.43H212.88ZM199,23.29c4.84-2.7,8.84-4.72,12-8.22,3.72,4.06,7.72,6.08,12,8.22Z"/><path class="cls-1" d="M219.81,44.59c.68-.68,1.63-1.69,2.88-3s2.19-2.37,2.87-3l-3.21-1.86c-2.26,2.48-4.12,4.46-5.58,5.92Z"/><path class="cls-1" d="M199.19,36.64l-3,1.86a53.11,53.11,0,0,1,4.39,5.24,4,4,0,0,1,.68.85l3.21-2c-.34-.45-.45-.62-.34-.51Q201,38.51,199.19,36.64Z"/><path class="cls-1" d="M255.46,28.76H236v20.8h3V31.66h13.39v13c.11,1.25-.45,1.81-1.67,1.7a11,11,0,0,1-2.52-.17,18.17,18.17,0,0,1,.67,3.24h2.68q4.18-.16,3.86-4.43Z"/><path class="cls-1" d="M251.27,38.31h-2.68a12.31,12.31,0,0,0,.84-1.71c.78-1.47,1.34-2.61,1.67-3.41l-2.51-1q-1.35,3.4-2.68,6.14h-5.69v2.9h4v7.16h2.84V41.21h4.19Z"/><path class="cls-1" d="M237.54,16.65V26H254V16.65Zm13.23,6.65H240.72V19.38h10.05Z"/><path class="cls-1" d="M245.07,36.94a25.39,25.39,0,0,0-2.34-4.6l-2.35,1a21.55,21.55,0,0,1,1.34,2.22L242.9,38Z"/><path class="cls-1" d="M273.54,41c-.45-1.48-.78-2.62-1-3.41l-2.67.68c.22.68.5,1.76.83,3.24.23,1.14.39,2,.51,2.55l-4,.35V35.07h6.19V16.82h-6V9.32H264v7.5h-6V35.06h6v9.55c-2.67.23-6.08.34-7.53.34l.67,3.58Q261,48,272,47l.5,2.56,2.85-.68C275.05,47.06,274.43,44.45,273.54,41Zm-9.21-9.38h-3.52V20.06h3.52ZM267,20.06h3.35v11.6H267Z"/><rect class="cls-1" x="235.36" y="10.86" width="20.6" height="3.07"/><path class="cls-1" d="M115.92,71.14a6.43,6.43,0,1,1,0-6.52l.07.11h2.49l-.14-.32a8.67,8.67,0,1,0,0,6.94l.14-.32H116Z"/><path class="cls-1" d="M131.27,69.13c-.34.8-.77,1.9-1.27,3.3-.46-1.26-.88-2.38-1.27-3.3l-3.9-9.37h-3.24V76.52H124V68.41c0-1.55,0-3.25-.12-5.06.44,1.17.88,2.26,1.31,3.3l4.17,9.87h1.22l4.16-9.87c.42-1,.86-2.08,1.31-3.31-.07,1.84-.11,3.55-.11,5.07v8.11h2.44V59.76h-3.24Z"/><rect class="cls-1" x="162.18" y="59.7" width="2.35" height="2.57"/><rect class="cls-1" x="162.18" y="64.51" width="2.35" height="12.03"/><rect class="cls-1" x="216.17" y="59.68" width="2.35" height="2.57"/><rect class="cls-1" x="216.17" y="64.48" width="2.35" height="12.03"/><path class="cls-1" d="M175.81,65.16a3.28,3.28,0,0,0-1.3-.76,5.42,5.42,0,0,0-2.85-.07,4.33,4.33,0,0,0-1.09.42,4.56,4.56,0,0,0-.9.64,4,4,0,0,0-.46.46l-.31-1.38H167v12h2.34V68.12a5.15,5.15,0,0,1,1.47-1.37,3.53,3.53,0,0,1,1.77-.51,1.94,1.94,0,0,1,1.52.58,3,3,0,0,1,.52,2v7.68H177v-8a5.66,5.66,0,0,0-.31-2A3.65,3.65,0,0,0,175.81,65.16Z"/><path class="cls-1" d="M199.36,65.17a3.41,3.41,0,0,0-1.3-.76,5.42,5.42,0,0,0-2.85-.07,4.35,4.35,0,0,0-1.09.43,4.14,4.14,0,0,0-.9.63,5,5,0,0,0-.46.46l-.31-1.38h-1.88v12h2.34V68.13a5.15,5.15,0,0,1,1.47-1.37,3.53,3.53,0,0,1,1.77-.51,1.92,1.92,0,0,1,1.52.59,3,3,0,0,1,.52,2v7.67h2.34v-8a5.66,5.66,0,0,0-.31-2A3.65,3.65,0,0,0,199.36,65.17Z"/><path class="cls-1" d="M188,66.29a3.88,3.88,0,0,0-1.69-1.74,6.12,6.12,0,0,0-3-.65c-.33,0-.67,0-1,.05a9,9,0,0,0-1,.14c-.3.07-.59.14-.86.23a4.14,4.14,0,0,0-.72.29l-.13.06v2l.31-.12a11.93,11.93,0,0,1,1.52-.44,8.11,8.11,0,0,1,1.6-.16,3.81,3.81,0,0,1,1.77.35,2.27,2.27,0,0,1,.91.88,1.88,1.88,0,0,1,.19.58,4.82,4.82,0,0,1,.05.8v.5a10.21,10.21,0,0,0-2.85-.45,5.78,5.78,0,0,0-1.81.27,4.25,4.25,0,0,0-1.42.78,3.43,3.43,0,0,0-.93,1.23,4.07,4.07,0,0,0-.33,1.64,4.35,4.35,0,0,0,.3,1.66,3.64,3.64,0,0,0,.83,1.26,3.75,3.75,0,0,0,1.29.78,4.91,4.91,0,0,0,1.62.26A5.32,5.32,0,0,0,185,76a5.49,5.49,0,0,0,.86-.54l.33-.3.17,1h2v-8a5.82,5.82,0,0,0-.09-1.06A3.14,3.14,0,0,0,188,66.29Zm-2,4.81v2a3.52,3.52,0,0,1-.33.31,4.71,4.71,0,0,1-.66.46,4.28,4.28,0,0,1-.89.4,3.15,3.15,0,0,1-1.85,0,1.62,1.62,0,0,1-.62-.34,1.69,1.69,0,0,1-.41-.59,2.15,2.15,0,0,1-.16-.85,1.62,1.62,0,0,1,.59-1.38,2.81,2.81,0,0,1,1.74-.47,8,8,0,0,1,1.54.14C185.38,71,185.73,71,186,71.1Z"/><path class="cls-1" d="M230.25,66.29a4,4,0,0,0-1.69-1.74,6.16,6.16,0,0,0-3-.65c-.33,0-.66,0-1,.05a8.85,8.85,0,0,0-1,.14c-.3.07-.58.14-.85.23a4.14,4.14,0,0,0-.72.29l-.13.06v2l.31-.12a12.28,12.28,0,0,1,1.51-.44,8.11,8.11,0,0,1,1.6-.16,3.81,3.81,0,0,1,1.77.35,2.27,2.27,0,0,1,.91.88,1.88,1.88,0,0,1,.19.58,4.74,4.74,0,0,1,.06.8v.5a9.7,9.7,0,0,0-1.15-.28,9.9,9.9,0,0,0-1.71-.17,5.71,5.71,0,0,0-1.8.27,4.2,4.2,0,0,0-1.43.78,3.67,3.67,0,0,0-.93,1.23,4.07,4.07,0,0,0-.33,1.64,4.35,4.35,0,0,0,.3,1.66,3.81,3.81,0,0,0,.84,1.26,3.66,3.66,0,0,0,1.29.78,4.87,4.87,0,0,0,1.62.26,5.22,5.22,0,0,0,2.27-.51,5.49,5.49,0,0,0,.86-.54l.34-.3.17,1h2v-8a6.87,6.87,0,0,0-.09-1.06A3.47,3.47,0,0,0,230.25,66.29Zm-2,4.81v2l-.34.31a4.71,4.71,0,0,1-.66.46,4.44,4.44,0,0,1-.88.4,3.19,3.19,0,0,1-1.86,0,1.56,1.56,0,0,1-1-.93,2.15,2.15,0,0,1-.15-.85,1.64,1.64,0,0,1,.58-1.38,2.84,2.84,0,0,1,1.75-.47,8.08,8.08,0,0,1,1.54.14C227.61,71,228,71,228.27,71.1Z"/><rect class="cls-1" x="233.28" y="58.4" width="2.35" height="18.11"/><path class="cls-1" d="M160.35,62.11h-8.76v4.61h8.76v2.39h-8.76v7.4h-2.34V59.92h11.1Z"/><path class="cls-1" d="M214,72.42l-2.26,0-.1.22v0a3.85,3.85,0,1,1,0-3.91l0,.06h0v0l2.26,0-.16-.32-.05-.11a1.79,1.79,0,0,0-.12-.24l-.1-.19h0a5.81,5.81,0,1,0,.23,5.08l.1-.21h0Z"/><path class="cls-1" d="M288.86,65.08a3.46,3.46,0,0,0-1.3-.68,5.06,5.06,0,0,0-2.62,0,4.93,4.93,0,0,0-1.07.41,4.72,4.72,0,0,0-.91.62c-.12.12-.25.24-.36.36V58.45h-2.34V76.56h2.34V68.17A5,5,0,0,1,284,66.8a3.55,3.55,0,0,1,1.79-.51,1.85,1.85,0,0,1,1.56.62,3.28,3.28,0,0,1,.48,2v7.68h2.34v-8a5.42,5.42,0,0,0-.37-2.17A3.5,3.5,0,0,0,288.86,65.08Z"/><path class="cls-1" d="M301.55,65.06a3.15,3.15,0,0,0-1.3-.76,5.38,5.38,0,0,0-2.84-.07,4.4,4.4,0,0,0-1.1.42,4.87,4.87,0,0,0-.9.64c-.16.14-.31.3-.46.46l-.31-1.38h-1.87v12h2.34V68a5,5,0,0,1,1.47-1.37,3.48,3.48,0,0,1,1.77-.51,1.91,1.91,0,0,1,1.51.58,3,3,0,0,1,.52,2v7.68h2.35v-8a5.76,5.76,0,0,0-.31-2A3.62,3.62,0,0,0,301.55,65.06Z"/><rect class="cls-1" x="318.53" y="58.26" width="2.35" height="18.11"/><path class="cls-1" d="M264.71,67.1a5.25,5.25,0,0,0-1-1.87,4,4,0,0,0-1.55-1.08,5.55,5.55,0,0,0-4,.07,5,5,0,0,0-1.75,1.22,6.06,6.06,0,0,0-1.22,2,8.36,8.36,0,0,0-.45,2.83,7.78,7.78,0,0,0,.47,2.84,4.85,4.85,0,0,0,3.29,3,8.39,8.39,0,0,0,2.4.33,9.69,9.69,0,0,0,2-.18,6.9,6.9,0,0,0,1.6-.49l.12-.07v-2l-.3.1a9.46,9.46,0,0,1-1.51.42,8.42,8.42,0,0,1-1.66.16,6.06,6.06,0,0,1-1.63-.22,3.5,3.5,0,0,1-1.27-.66,2.9,2.9,0,0,1-.85-1.16,4.3,4.3,0,0,1-.31-1.57h8v-.22c0-.25,0-.41,0-.48V69.8A8.94,8.94,0,0,0,264.71,67.1Zm-7.51,1.57a3.76,3.76,0,0,1,.27-.94,3.22,3.22,0,0,1,.64-1,3,3,0,0,1,.91-.65,2.78,2.78,0,0,1,2.19,0,2.16,2.16,0,0,1,.77.63,2.55,2.55,0,0,1,.48,1,3.79,3.79,0,0,1,.17,1Z"/><path class="cls-1" d="M310.66,63.78a6.3,6.3,0,1,0,6.3,6.29A6.3,6.3,0,0,0,310.66,63.78Zm0,10.55a4.25,4.25,0,1,1,4.25-4.26A4.25,4.25,0,0,1,310.66,74.33Z"/><path class="cls-1" d="M328.45,63.87a6.3,6.3,0,1,0,6.3,6.29A6.3,6.3,0,0,0,328.45,63.87Zm0,10.55a4.25,4.25,0,1,1,4.25-4.26A4.25,4.25,0,0,1,328.45,74.42Z"/><path class="cls-1" d="M254.66,62.93h-5.28V76.41H247V62.93h-5.33v-2h13Z"/><path class="cls-1" d="M361.48,64.57H364Q359.3,76,358.43,77.92q-1.67,4.5-4.11,4.16a6.57,6.57,0,0,1-2.36-.43V80a4.59,4.59,0,0,0,1.58.26c1.16.12,2-.52,2.53-1.91.06-.11.61-1.56.61-1.56l-5.41-12.22h2.53q3.06,7.89,3.4,8.76c.18.52.35,1.07.53,1.64a3.71,3.71,0,0,0,.35-.86,5.48,5.48,0,0,0,.26-.78C358.57,72.63,359.62,69.72,361.48,64.57Z"/><path class="cls-1" d="M278.42,72.48l-2.26,0-.1.22h0a3.84,3.84,0,1,1,0-3.91l0,.07h0v0l2.25-.05-.16-.32,0-.11c0-.08-.09-.15-.13-.24l-.1-.18h0a5.8,5.8,0,1,0,.23,5.08l.1-.21h0Z"/><path class="cls-1" d="M347,64.19h2.45V75.64q.36,7.17-6.72,6.81c-2.91-.06-4.75-1.12-5.54-3.18l2.18-.36A4.24,4.24,0,0,0,343,80.63q4.1.09,4-4.08V74.73c-.79,1.58-2.33,2.33-4.63,2.27q-5.55-.18-5.63-6.45.18-6.45,5.9-6.72,3.18.09,4.36,2.36ZM347,71V69.55a3.69,3.69,0,0,0-3.73-3.81q-3.9.18-4.08,4.81.09,4.73,4,4.82C345.62,75.31,346.89,73.85,347,71Z"/><path class="cls-2" d="M84.83,53C77.15,42.87,65.67,32.48,62.5,29.91a10.33,10.33,0,0,0-6.61-2.67,9.51,9.51,0,0,0-6.16,2.55l-1.58,1.4C43.59,35,29.5,48,29.18,48.28a5.56,5.56,0,0,1-4,1.61,6.87,6.87,0,0,1-4.36-2.08A112.6,112.6,0,0,1,9.36,36.74C5.89,32.85,3,29.38,3,29.38s-.64,1.31-1,2.22a1.47,1.47,0,0,0,.1,1.45C4,35.74,12.61,46,24.45,56.21a9.86,9.86,0,0,0,6.61,2.67,9.51,9.51,0,0,0,6.16-2.55l1.58-1.39c4.56-3.85,13.1-11.68,17.14-15.43.87-.78,1.51-1.37,1.83-1.67a5.55,5.55,0,0,1,4-1.61,7.38,7.38,0,0,1,4.36,2.08A155.64,155.64,0,0,1,77.59,49.38c3.57,3.76,6.3,7.28,6.33,7.32s.66-1.35,1-2.28A1.34,1.34,0,0,0,84.83,53Z"/><path class="cls-1" d="M39.23,15.7c-4,2.89-20.28,18.05-23.47,21.67a61.76,61.76,0,0,0,5.73,5.39,2,2,0,0,0,2.91-.34c6.28-6.32,19.1-17.62,20.83-19,4.83-4.11,10.46-4.47,15.62-.61C73.37,32.2,84.44,47,86.35,49.7c0,0,.28-1.35.45-2.57A3,3,0,0,0,86.42,45c-11.74-17-24.24-27.42-29-30C51.89,12,45.55,11.09,39.23,15.7Z"/><path class="cls-1" d="M26,6.85A277.67,277.67,0,0,0,5,25.83,71.1,71.1,0,0,0,10,31.29a1.16,1.16,0,0,0,1.75-.18c8-7.69,16.6-15.55,21.61-19.43,8.46-6.54,18.37-7.17,28,.56A114.87,114.87,0,0,1,72.86,22.77,156.42,156.42,0,0,1,87,40.83,21.18,21.18,0,0,0,86.49,37a6.89,6.89,0,0,0-.5-1.5A86.17,86.17,0,0,0,75.9,21C65.07,8.31,58.23,4.46,53.84,2.16,48-.9,36.71-1.79,26,6.85Z"/><path class="cls-1" d="M47.75,70.42c4-2.89,20.27-18,23.47-21.67a61.2,61.2,0,0,0-5.74-5.39,2,2,0,0,0-2.9.34C56.3,50,43.48,61.32,41.75,62.7c-4.83,4.1-10.46,4.47-15.62.6C13.61,53.93,2.54,39.17.63,36.42c0,0-.28,1.35-.45,2.57a2.91,2.91,0,0,0,.38,2.09c11.75,17,24.24,27.42,29,30C35.09,74.1,41.43,75,47.75,70.42Z"/><path class="cls-1" d="M61,79.27A277.67,277.67,0,0,0,82,60.29a71.1,71.1,0,0,0-5-5.46,1.17,1.17,0,0,0-1.75.18c-8,7.7-16.6,15.55-21.61,19.43-8.46,6.53-18.37,7.17-28-.56A114.76,114.76,0,0,1,14.12,63.35,156.42,156.42,0,0,1,0,45.29a17.24,17.24,0,0,0,.49,3.82A7.12,7.12,0,0,0,1,50.6,85.25,85.25,0,0,0,11.08,65.16C21.91,77.81,28.75,81.67,33.14,84,39,87,50.28,87.91,61,79.27Z"/></g></g></svg>