<svg xmlns="http://www.w3.org/2000/svg" width="48" height="48" fill="none" viewBox="0 0 48 48">
  <path fill="#324558" d="M40.265 19.175c.726.726 1.79.909 2.685.548.513-.206 1.145-.232 1.536.159l.535.535a1 1 0 010 1.414l-5.657 5.657a1 1 0 01-1.414 0l-.592-.592c-.37-.37-.377-.96-.141-1.428a3.779 3.779 0 00-5.844-4.557l-4.308-4.308a6.002 6.002 0 00-8.368-8.368l-.766-.766a12.44 12.44 0 0115.696 1.554l5.93 5.93c.391.391.366 1.024.16 1.536a2.485 2.485 0 00.548 2.686z"/>
  <path fill="#B6C2CD" d="M27.07 16.616l4.3 4.299-19.841 22.413a2 2 0 01-2.912.089l-4.064-4.064a2 2 0 01.09-2.913L27.07 16.616z"/>
</svg>
