<svg xmlns="http://www.w3.org/2000/svg" width="48" height="48" fill="none" viewBox="0 0 48 48">
  <path fill="#B6C2CD" d="M23.02 2.552a2 2 0 011.96 0l6 3.375A2 2 0 0132 7.67v6.66a2 2 0 01-1.02 1.744l-6 3.375a2 2 0 01-1.96 0l-6-3.375A2 2 0 0116 14.33V7.67a2 2 0 011.02-1.743l6-3.375zm-13 20a2 2 0 011.96 0l6 3.375A2 2 0 0119 27.67v6.66a2 2 0 01-1.02 1.744l-6 3.375a2 2 0 01-1.96 0l-6-3.375A2 2 0 013 34.33v-6.66a2 2 0 011.02-1.743l6-3.375zm27.96 0a2 2 0 00-1.96 0l-6 3.375A2 2 0 0029 27.67v6.66a2 2 0 001.02 1.744l6 3.375a2 2 0 001.96 0l6-3.375A2 2 0 0045 34.33v-6.66a2 2 0 00-1.02-1.743l-6-3.375z"/>
  <path fill="#324558" d="M13 9.429l-5.707 3.19A3.5 3.5 0 005.5 15.672v5.979l3-1.688v-4.29a.5.5 0 01.256-.437L13 12.865V9.43zm22 3.436V9.43l5.707 3.19a3.5 3.5 0 011.793 3.054v5.979l-3-1.688v-4.29a.5.5 0 00-.256-.437L35 12.865zm-10.756 28.28l4.35-2.431 3.066 1.724-5.953 3.326a3.5 3.5 0 01-3.414 0l-5.953-3.326 3.065-1.724 4.351 2.431a.5.5 0 00.488 0zM24 22.791l-4.782-2.608-1.436 2.634L22.5 25.39v9.11h3v-9.11l4.718-2.573-1.436-2.634L24 22.791z"/>
</svg>
