<svg xmlns="http://www.w3.org/2000/svg" width="48" height="48" fill="none" viewBox="0 0 48 48">
  <path fill="#324558" d="M24 13l21 11-21 11L3 24l21-11z"/>
  <path fill="#B6C2CD" d="M24.931 2.49a2 2 0 00-1.863 0L6.681 11.115a1 1 0 000 1.77l5.524 2.907 4.304-2.255L13.589 12l10.41-5.48L34.412 12l-2.92 1.537 4.304 2.255 5.523-2.907a1 1 0 000-1.77L24.931 2.49zM12.205 32.208L6.68 35.115a1 1 0 000 1.77l16.387 8.625a2 2 0 001.863 0l16.387-8.625a1 1 0 000-1.77l-5.523-2.907-4.304 2.255L34.41 36 24 41.48 13.588 36l2.921-1.537-4.304-2.255z"/>
</svg>
