<svg xmlns="http://www.w3.org/2000/svg" width="56" height="56" fill="none" viewBox="0 0 56 56">
  <g opacity=".4">
    <path fill="#B6C2CD" d="M13.322 49h29.356c3.463 0 6.295-2.957 6.322-6.588V28L40.963 7.978A1.675 1.675 0 0039.443 7H16.606c-.638 0-1.226.36-1.52.978L7 28v14.412C7.049 46.066 9.842 49 13.322 49z"/>
    <path fill="#324558" d="M49 28.383v16.122C49 46.992 46.942 49 44.393 49H11.607C9.058 49 7 46.992 7 44.505V28h10.537c1.568 0 2.891 1.243 2.891 2.821 0 .765.343 1.482.833 2.008.54.526 1.226.813 2.059.813h9.41c1.568 0 2.89-1.243 2.89-2.821 0-.765.344-1.482.834-2.008a2.811 2.811 0 012.01-.813H49v.383z"/>
  </g>
</svg>
