<svg xmlns="http://www.w3.org/2000/svg" width="48" height="48" fill="none" viewBox="0 0 48 48">
  <path fill="#324558" d="M22 4h4v5h-4V4zm0 40v-5h4v5h-4z"/>
  <path fill="#324558" fill-rule="evenodd" d="M21.627 14l-.501 2.523a8.16 8.16 0 00-2.286 1.291l-2.467-.835L14 21.021l1.974 1.685c-.07.422-.116.852-.116 1.293 0 .441.046.871.116 1.293L14 26.979l2.373 4.043 2.467-.836a8.16 8.16 0 002.286 1.29l.5 2.524h4.747l.501-2.523a8.16 8.16 0 002.286-1.291l2.467.835L34 26.979l-1.974-1.685c.07-.422.115-.852.115-1.293 0-.441-.045-.871-.115-1.293L34 21.021l-2.373-4.043-2.467.836a8.16 8.16 0 00-2.286-1.29l-.5-2.524h-4.747zM28 24a4 4 0 11-8 0 4 4 0 018 0z" clip-rule="evenodd"/>
  <path fill="#B6C2CD" d="M24 28a4 4 0 100-8 4 4 0 000 8z"/>
  <path fill="#B6C2CD" fill-rule="evenodd" d="M6 9a2 2 0 00-2 2v11.5h6v3H4V37a2 2 0 002 2h36a2 2 0 002-2V25.5h-6v-3h6V11a2 2 0 00-2-2H6zm15.126 7.523l.5-2.523h4.747l.501 2.523a8.16 8.16 0 012.286 1.291l2.467-.835L34 21.021l-1.974 1.685c.07.422.115.852.115 1.293 0 .441-.045.871-.115 1.293L34 26.979l-2.373 4.043-2.467-.836a8.16 8.16 0 01-2.286 1.29l-.5 2.524h-4.747l-.501-2.523a8.16 8.16 0 01-2.286-1.291l-2.467.835L14 26.979l1.974-1.685A7.875 7.875 0 0115.858 24c0-.441.046-.871.116-1.293L14 21.021l2.373-4.043 2.467.836a8.16 8.16 0 012.286-1.29z" clip-rule="evenodd"/>
</svg>
