<svg xmlns="http://www.w3.org/2000/svg" width="48" height="48" fill="none" viewBox="0 0 48 48">
  <path fill="#324558" d="M24 2a3 3 0 00-3 3v2.298C21.97 7.102 22.973 7 24 7s2.03.102 3 .298V5a3 3 0 00-3-3zm-6.93 36a7 7 0 1013.858 0H17.072zm8.43-24v8.25H30L22.5 32v-8.25H18L25.5 14z"/>
  <path fill="#B6C2CD" fill-rule="evenodd" d="M21 7.298C14.091 8.689 8.889 14.793 8.889 22.11v10.242L7 38h34l-1.889-5.647V22.11c0-7.318-5.203-13.422-12.111-14.813A15.181 15.181 0 0024 7c-1.027 0-2.03.102-3 .298zm4.5 14.952V14L18 23.75h4.5V32l7.5-9.75h-4.5z" clip-rule="evenodd"/>
</svg>
