<svg xmlns="http://www.w3.org/2000/svg" width="48" height="48" fill="none" viewBox="0 0 48 48">
  <path fill="#324558" fill-rule="evenodd" d="M24 21.642l6.94-4.338 2.12 3.392L26 25.108V33h-4v-7.892l-7.06-4.412 2.12-3.392L24 21.642z" clip-rule="evenodd"/>
  <path fill="#B6C2CD" fill-rule="evenodd" d="M25 3.578a2 2 0 00-2 0L6.813 12.923a2 2 0 00-1 1.732v18.69a2 2 0 001 1.733L23 44.422a2 2 0 002 0l16.187-9.346a2 2 0 001-1.731v-18.69a2 2 0 00-1-1.732L25 3.578zm5.94 13.726L24 21.642l-6.94-4.338-2.12 3.392L22 25.11V33h4v-7.89l7.06-4.413-2.12-3.392z" clip-rule="evenodd"/>
</svg>
