<svg xmlns="http://www.w3.org/2000/svg" width="48" height="48" fill="none" viewBox="0 0 48 48">
  <path fill="#B6C2CD" d="M14.237 23.56a2 2 0 00-1.974 0l-7.25 4.115A2 2 0 004 29.415v8.17a2 2 0 001.013 1.74l7.25 4.115a2 2 0 001.974 0l7.25-4.115a2 2 0 001.013-1.74v-8.17a2 2 0 00-1.013-1.74l-7.25-4.115zm21.5 0a2 2 0 00-1.974 0l-7.25 4.115a2 2 0 00-1.013 1.74v8.17a2 2 0 001.013 1.74l7.25 4.115a2 2 0 001.974 0l7.25-4.115A2 2 0 0044 37.585v-8.17a2 2 0 00-1.013-1.74l-7.25-4.115z"/>
  <path fill="#324558" d="M23.015 4.557a2 2 0 011.97 0l7.5 4.244a2 2 0 011.015 1.74v8.418a2 2 0 01-1.015 1.74l-7.5 4.244a2 2 0 01-1.97 0l-7.5-4.244a2 2 0 01-1.015-1.74V10.54a2 2 0 011.015-1.74l7.5-4.244z"/>
</svg>
