<svg xmlns="http://www.w3.org/2000/svg" width="48" height="48" fill="none" viewBox="0 0 48 48">
  <path fill="#324558" fill-rule="evenodd" d="M24.002 2L5 12.999v22.002L24.002 46l4.625-2.677-4.625-2.927v-.008L9.845 32.195v-16.39l14.157-8.193 14.153 8.193v16.01l-.015.008L43 34.62V12.999L24.002 2zm0 9.562l9.061 5.25-9.061 5.365-9.065-5.364 9.065-5.251zM22.296 35.45l-9.039-5.232V19.793l9.039 5.35V35.45zm12.447-15.657v10.425l-3.576 2.065 8.44 4.619-6.825 3.802-7.074-4.152V25.143l9.035-5.35z" clip-rule="evenodd"/>
</svg>
