<svg xmlns="http://www.w3.org/2000/svg" width="48" height="48" fill="none" viewBox="0 0 48 48">
  <path fill="#324558" d="M7.083 7.33A2 2 0 018.967 6h30.066a2 2 0 011.884 1.33L44 16a5 5 0 01-10 0 5 5 0 01-10 0 5 5 0 01-10 0 5 5 0 01-10 0l3.083-8.67zM28 30h6v6h-6v-6zm-6 0h-8v12h8V30z"/>
  <path fill="#B6C2CD" fill-rule="evenodd" d="M42 20a4.977 4.977 0 01-3 1 5 5 0 01-5-5 5 5 0 01-10 0 5 5 0 01-10 0 5 5 0 01-8 4v20a2 2 0 002 2h6V30h8v12h18a2 2 0 002-2V20zM28 30h6v6h-6v-6z" clip-rule="evenodd"/>
</svg>
