<svg xmlns="http://www.w3.org/2000/svg" width="48" height="48" fill="none" viewBox="0 0 48 48">
  <path fill="#B6C2CD" d="M6 8.722a2 2 0 011.703-1.977L26 4v40L7.703 41.255A2 2 0 016 39.279V8.722z"/>
  <path fill="#324558" d="M39.434 17.674C36.882 18.525 33.546 19 30 19c-.335 0-.669-.004-1-.013v5c.33.008.663.013 1 .013 6.627 0 12-1.79 12-4v-3.464c-.788.468-1.671.84-2.566 1.138zM42 12c0 2.21-5.373 4-12 4-.337 0-.67-.005-1-.014V8.014A36.172 36.172 0 0130 8c6.627 0 12 1.79 12 4zM29 39.986c.33.01.663.014 1 .014 6.627 0 12-1.79 12-4v-3.464c-.788.468-1.671.84-2.566 1.139C36.882 34.525 33.546 35 30 35c-.335 0-.669-.004-1-.013v5zM42 28v-3.464c-.788.468-1.671.84-2.566 1.138C36.882 26.525 33.546 27 30 27c-.335 0-.669-.004-1-.013v5c.33.008.663.013 1 .013 6.627 0 12-1.79 12-4z"/>
</svg>
