<svg xmlns="http://www.w3.org/2000/svg" width="48" height="48" fill="none" viewBox="0 0 48 48">
  <path fill="#324558" d="M25.31 24.016L20.074 9.882l-4.58 11.111H8v3h9.504l2.421-5.875 4.766 12.866 5.245-8.917 1.029 1.926H40v-3h-7.236l-2.7-5.06-4.755 8.083zM27 34h-6v3.982c-.286.124-2.22.921-4.965 1.014-.566.019-1.035.469-1.035 1.034v1.965h6V42h6v-.005h6V40.03c0-.565-.47-1.015-1.035-1.034-2.746-.093-4.68-.89-4.965-1.014V34z"/>
  <path fill="#B6C2CD" fill-rule="evenodd" d="M4 8a2 2 0 012-2h36a2 2 0 012 2v24a2 2 0 01-2 2H6a2 2 0 01-2-2V8zm16.075 1.882l5.234 14.134 4.755-8.082 2.7 5.06H40v3h-9.035l-1.029-1.927-5.245 8.917-4.765-12.866-2.422 5.875H8v-3h7.496l4.579-11.11z" clip-rule="evenodd"/>
</svg>
